<?xml version="1.0" encoding="UTF-8"?>
<svg width="85px" height="85px" viewBox="0 0 85 85" version="1.1" xmlns="http://www.w3.org/2000/svg" xmlns:xlink="http://www.w3.org/1999/xlink">
    <!-- Generator: Sketch 53.2 (72643) - https://sketchapp.com -->
    <title>PK logo</title>
    <desc>Created with Sketch.</desc>
    <defs>
        <polygon id="path-1" points="0 24.4134903 0 0.211573643 33.5661174 0.211573643 33.5661174 48.615407 0 48.615407"></polygon>
    </defs>
    <g id="Identity" stroke="none" stroke-width="1" fill="none" fill-rule="evenodd">
        <g id="Logo" transform="translate(-282.000000, -463.000000)">
            <g id="PK-logo" transform="translate(282.000000, 463.000000)">
                <circle id="Oval" fill="#747474" cx="42.5" cy="42.5" r="42.5"></circle>
                <g id="Page-1" transform="translate(9.000000, 18.000000)">
                    <path d="M35.3344492,21.1138341 C35.3344492,21.1138341 56.1409518,0.379996899 56.5449358,0.379996899 L58.1384913,0.379996899 L62.1646753,0.379996899 C62.7275976,0.379996899 63.2108611,0.560423256 63.6152244,0.923934884 C64.0169324,1.28668682 64.2187347,1.75123721 64.2187347,2.31606667 C64.2187347,2.88127597 63.978241,3.3648186 63.4945982,3.76745426 L62.8296368,4.55487287 L46.4047482,20.7233535 L63.9171692,45.0372295 L64.4004327,45.7019581 C64.8431081,46.2679271 64.9948392,46.7814775 64.8544879,47.2452682 C64.7114814,47.7101984 64.4209164,48.103338 63.978241,48.4258264 C63.6152244,48.6681674 63.2313448,48.7881984 62.8296368,48.7881984 L57.7523358,48.7881984 C57.3912158,48.7881984 57.0668906,48.7179271 56.7854295,48.5770047 C56.5039684,48.4360822 56.2225072,48.1439814 55.9410461,47.6999426 L56.0002212,47.8203535 L40.4238887,26.1703302 C39.5772293,26.9771209 36.2194207,29.4047101 35.3344492,30.2115008 L35.3344492,46.8521287 C35.3344492,48.1439814 34.6694878,48.7881984 33.3391856,48.7881984 L29.2925179,48.7881984 C28.0418746,48.7881984 27.4175012,48.1439814 27.4175012,46.8521287 L27.2972543,26.8510124 L35.3344492,21.1138341 Z" id="Fill-1" fill="#D0D2D3"></path>
                    <g id="Group-5" transform="translate(0.000000, 0.168271)">
                        <mask id="mask-2" fill="white">
                            <use xlink:href="#path-1"></use>
                        </mask>
                        <g id="Clip-4"></g>
                        <path d="M33.323178,8.59152326 C33.0212332,7.03947674 32.4173435,5.64734496 31.511509,4.41626744 C30.6037779,3.1867093 29.384998,2.17784109 27.8547902,1.39194186 C26.3245823,0.605282946 24.4719459,0.211383721 22.296881,0.211383721 L1.99450494,0.211383721 C1.4293067,0.211383721 0.95628508,0.413841085 0.574302107,0.817236434 C0.191939806,1.22025194 0,1.66353101 0,2.14783333 L0.0166904179,8.25915891 L8.03681555,8.25915891 L13.6432787,8.25915891 L21.8735513,8.25915891 C23.1617481,8.25915891 23.9666815,8.92464729 24.2910066,10.2552442 C24.6119178,11.5467171 24.3714241,12.8374302 23.5661114,14.1281434 C23.4041385,14.3697248 23.0813307,14.6830969 22.5988258,15.0656008 C22.1140451,15.4492442 21.5810897,15.8431434 20.9976837,16.2453992 C20.4123811,16.6495543 19.8289751,17.0320581 19.2459485,17.3951899 C18.6606459,17.7579419 18.1872449,18.0405465 17.8257457,18.2422442 C16.6225183,18.9715465 15.3400114,19.7080659 14.0142611,20.4487636 L14.0142611,20.4571202 L13.6918326,20.6295698 C13.4350278,20.7720116 13.192258,20.9129341 12.9312806,21.0557558 C11.1977531,22.0042287 9.56702341,22.8812907 8.03681555,23.6873217 L8.03681555,23.6508566 L0.0701756207,27.9077791 L0.121384857,46.6789574 C0.121384857,47.1632597 0.292461641,47.6076783 0.635753191,48.0106938 C0.976768775,48.4137093 1.4293067,48.615407 1.99450494,48.615407 L6.10414102,48.615407 C7.02856258,48.615407 7.5838983,48.3738256 7.7648376,47.8895233 C7.94539758,47.4052209 8.03681555,46.8609031 8.03681555,46.2554302 L8.03681555,32.7637171 L23.8680563,23.9900581 C24.4309785,23.6679496 25.0963193,23.2546783 25.8606646,22.7494845 C26.6265271,22.2458101 27.5323616,21.6513527 28.5796854,20.964593 C29.9088496,20.0780349 30.976657,18.9487558 31.7819696,17.5771357 C32.5887996,16.2062752 33.121755,14.7533682 33.3846291,13.2199341 C33.6456065,11.6876395 33.6251228,10.1450891 33.323178,8.59152326" id="Fill-3" fill="#D0D2D3" mask="url(#mask-2)"></path>
                    </g>
                </g>
            </g>
        </g>
    </g>
</svg>